<?xml version="1.0" standalone="no"?>
<!DOCTYPE svg PUBLIC "-//W3C//DTD SVG 20010904//EN"
 "http://www.w3.org/TR/2001/REC-SVG-20010904/DTD/svg10.dtd">
<svg version="1.0" xmlns="http://www.w3.org/2000/svg"
 width="1080.000000pt" height="810.000000pt" viewBox="0 0 1080.000000 810.000000"
 preserveAspectRatio="xMidYMid meet">

<g transform="translate(0.000000,810.000000) scale(0.100000,-0.100000)"
fill="#000000" stroke="none">
<path d="M5314 7571 c-54 -14 -125 -55 -156 -90 -55 -62 -73 -115 -73 -216 0
-79 4 -97 29 -148 25 -52 98 -126 137 -139 8 -3 -8 -91 -49 -278 -33 -151 -63
-291 -67 -310 -15 -77 54 -70 -628 -72 l-612 -3 -3 -217 -2 -218 -145 0 c-142
0 -145 0 -150 -22 -3 -13 -4 -180 -3 -373 l3 -350 82 -3 83 -3 2 -292 3 -292
603 -3 602 -2 0 -50 c0 -46 -2 -50 -23 -50 -37 0 -47 -19 -47 -91 0 -52 -4
-68 -16 -73 -9 -3 -80 -6 -159 -6 l-144 0 -63 55 c-97 85 -211 119 -348 103
-219 -25 -386 -238 -365 -465 4 -48 3 -73 -4 -73 -5 0 -76 -111 -157 -246
-138 -232 -146 -249 -141 -287 5 -37 -1 -52 -68 -163 -41 -67 -83 -140 -93
-161 -16 -29 -29 -41 -62 -51 -94 -29 -166 -104 -196 -208 l-15 -51 -77 -13
c-42 -7 -113 -14 -156 -15 l-79 -1 -41 -49 c-152 -180 -268 -335 -287 -385
-32 -82 -36 -190 -10 -267 26 -77 60 -135 76 -131 7 2 86 92 174 200 89 108
166 200 172 203 13 8 69 -28 134 -87 59 -54 73 -25 -134 -277 -83 -102 -151
-189 -151 -193 0 -5 17 -16 37 -25 55 -24 192 -23 267 1 103 34 152 80 365
344 91 114 86 93 61 227 -6 32 -10 79 -8 104 3 44 4 44 52 58 145 42 226 170
213 331 l-6 67 92 149 c81 131 96 151 127 161 32 10 47 31 165 228 126 212
130 217 162 217 l33 0 2 -687 3 -688 88 -3 c48 -1 87 -5 87 -7 0 -2 -11 -21
-25 -41 -19 -28 -25 -50 -25 -91 0 -61 9 -84 52 -129 l29 -31 -30 -32 c-58
-62 -58 -181 -1 -236 l29 -27 -34 -49 c-58 -85 -58 -138 2 -216 l35 -45 -26
-27 c-14 -14 -32 -43 -41 -63 -11 -27 -23 -39 -43 -43 -243 -51 -471 -209
-555 -385 -41 -85 -68 -213 -49 -232 23 -23 279 -30 920 -25 456 3 657 8 664
15 8 8 8 78 -1 254 -6 134 -11 259 -10 278 6 140 5 147 -27 191 l-31 43 29 37
c52 65 50 163 -4 225 l-31 35 21 22 c29 30 52 89 52 131 0 48 -16 85 -52 123
l-30 31 32 40 c52 65 54 163 4 222 l-26 30 182 0 182 0 -20 -32 c-44 -72 -36
-160 18 -218 l31 -33 -22 -15 c-24 -16 -69 -106 -69 -137 0 -41 21 -94 49
-124 l29 -31 -29 -31 c-35 -37 -53 -99 -44 -148 8 -43 39 -97 61 -105 13 -5
11 -12 -15 -41 -44 -50 -58 -104 -42 -164 9 -36 10 -64 2 -107 -12 -68 -17
-461 -7 -472 10 -10 1502 -9 1550 1 l39 8 -6 68 c-21 254 -270 481 -607 555
-18 4 -30 16 -38 40 -7 20 -26 48 -42 63 l-30 28 30 30 c67 69 68 178 3 247
l-25 26 32 41 c57 70 52 176 -10 236 l-29 28 25 19 c64 51 82 152 40 225 l-24
42 56 3 57 3 5 682 c3 375 7 684 10 687 3 3 64 -92 135 -212 121 -202 132
-218 165 -226 32 -8 43 -22 128 -163 l92 -155 -6 -63 c-16 -156 68 -286 212
-328 48 -14 49 -14 52 -58 2 -25 -2 -72 -8 -104 -25 -136 -36 -107 107 -282
188 -229 233 -265 365 -299 44 -12 82 -14 127 -10 67 7 131 29 131 45 0 5 -68
91 -151 192 -193 233 -187 224 -163 250 40 44 145 121 158 116 8 -3 65 -68
128 -144 181 -220 212 -256 226 -261 7 -2 26 26 49 73 48 101 55 191 24 292
-24 80 -42 107 -177 274 -154 190 -167 202 -206 196 -18 -3 -86 1 -150 10
l-117 16 -17 55 c-30 103 -96 173 -196 208 -26 8 -50 23 -53 33 -3 9 -43 81
-89 159 -76 129 -83 146 -79 185 4 39 -5 57 -137 277 -77 129 -147 240 -155
246 -12 9 -14 25 -9 80 16 174 -77 344 -229 419 -173 84 -356 62 -485 -59
l-49 -46 -107 0 -106 0 0 68 c0 75 -9 92 -52 92 -27 0 -28 2 -28 50 l0 50 568
0 c428 0 571 3 580 12 9 9 12 88 12 295 l0 282 73 3 72 3 0 370 0 370 -150 5
-150 5 -5 215 -5 215 -665 5 -664 5 -63 300 c-34 165 -63 310 -63 322 0 15 13
29 44 47 167 98 200 337 67 489 -60 68 -185 109 -267 88z m168 -64 c76 -39
121 -99 138 -184 15 -69 9 -118 -21 -179 -83 -173 -283 -205 -409 -67 -67 74
-88 140 -71 232 7 35 18 76 26 91 39 75 144 140 227 140 33 0 64 -9 110 -33z
m-62 -564 c0 -5 27 -140 60 -301 33 -161 60 -300 60 -307 0 -13 -30 -15 -185
-15 -102 0 -185 2 -185 5 0 3 29 136 65 297 36 160 65 299 65 309 0 16 8 19
60 19 33 0 60 -3 60 -7z m1468 -1095 l2 -418 -109 0 c-60 0 -122 -4 -136 -10
-14 -5 -70 -52 -123 -102 -54 -51 -148 -139 -209 -195 l-112 -103 -805 0 -804
0 -197 205 -198 205 -128 0 -129 0 0 420 0 420 1473 -2 1472 -3 3 -417z
m-2998 -218 l0 -199 -62 -3 -63 -3 -3 -122 -3 -123 -59 0 -60 0 0 325 0 325
125 0 125 0 0 -200z m3300 -129 l0 -329 -47 6 c-27 2 -49 6 -51 7 -2 2 -3 50
-4 106 0 57 -4 112 -9 121 -8 14 -23 18 -73 18 -58 0 -64 2 -70 23 -8 30 -8
362 1 370 3 4 62 7 130 7 l123 0 0 -329z m-2854 -288 c87 -93 175 -185 195
-205 l37 -38 826 0 827 0 141 133 c78 72 176 165 220 205 l78 72 190 0 190 0
0 -395 0 -395 -1617 0 -1618 0 2 282 c2 156 3 334 3 396 l0 112 183 0 184 0
159 -167z m1539 -723 l0 -45 -427 -3 -428 -2 0 50 0 50 428 -2 427 -3 0 -45z
m-1485 -122 c30 -14 71 -40 90 -56 l35 -31 -117 -1 c-64 0 -123 -3 -132 -6
-14 -5 -16 -44 -16 -336 l0 -331 -63 5 c-126 10 -251 97 -309 215 -27 55 -33
80 -36 153 -5 107 12 174 65 250 49 70 122 125 198 150 86 29 210 23 285 -12z
m2277 17 c71 -21 165 -87 209 -146 118 -161 91 -406 -59 -535 -50 -42 -130
-81 -186 -90 l-41 -7 0 331 c0 292 -2 331 -16 336 -9 3 -79 6 -156 6 l-141 0
19 21 c74 82 247 121 371 84z m-709 -52 l3 -53 -505 0 -506 0 0 55 0 55 503
-2 502 -3 3 -52z m582 -1098 l0 -995 -1120 0 -1120 0 0 995 0 995 1120 0 1120
0 0 -995z m-2610 465 c25 -25 57 -54 72 -65 l27 -20 -92 -212 c-51 -116 -95
-215 -99 -218 -4 -4 -49 19 -101 50 l-95 56 58 137 c165 395 152 368 169 341
8 -13 36 -44 61 -69z m3130 -202 l88 -207 -95 -56 c-52 -32 -98 -53 -103 -49
-4 5 -49 105 -100 223 -62 141 -89 216 -81 219 27 9 108 82 136 122 l30 43 19
-44 c11 -24 58 -137 106 -251z m-3395 -264 c41 -25 75 -47 75 -48 0 -3 -66
-164 -100 -243 l-22 -52 -41 34 c-22 19 -56 40 -74 47 -18 7 -33 17 -33 23 0
12 111 285 116 285 2 0 37 -21 79 -46z m3592 -82 c29 -70 55 -135 59 -144 4
-12 -4 -21 -28 -34 -18 -9 -52 -32 -74 -50 l-42 -34 -47 108 c-74 169 -79 182
-67 194 11 11 134 87 142 88 3 0 29 -57 57 -128z m-3766 -216 c47 -22 103 -78
125 -125 10 -20 20 -62 22 -94 8 -101 -41 -189 -137 -245 -40 -23 -57 -27
-126 -27 -62 0 -89 5 -120 22 -153 82 -190 272 -78 403 55 64 121 92 208 88
40 -2 86 -11 106 -22z m4012 10 c128 -46 201 -187 164 -317 -19 -65 -73 -131
-131 -161 -63 -32 -159 -36 -224 -8 -63 27 -133 101 -150 158 -18 58 -14 141
7 189 25 55 92 118 144 137 53 18 140 19 190 2z m-4433 -276 c0 -10 -11 -12
-175 -35 -60 -9 -115 -21 -121 -28 -270 -298 -343 -436 -303 -574 l14 -48 6
74 c15 163 160 363 329 455 34 19 83 32 161 43 l112 17 16 -24 c35 -53 66 -83
116 -111 l52 -29 7 -62 c16 -157 14 -166 -71 -301 -94 -147 -182 -239 -274
-284 -63 -31 -184 -62 -196 -50 -3 4 44 66 104 139 201 244 203 247 203 278 0
25 -14 41 -82 100 -73 62 -87 70 -118 68 -35 -3 -67 -37 -327 -354 l-31 -39
-28 60 c-23 50 -28 74 -28 145 -1 75 3 92 30 150 19 38 86 132 166 230 l134
165 69 2 c39 1 93 6 120 11 69 13 115 14 115 2z m4785 -5 c50 -8 106 -12 125
-9 33 4 38 1 90 -63 240 -293 262 -327 281 -427 12 -68 0 -145 -34 -211 l-23
-47 -109 134 c-196 240 -213 258 -247 258 -51 0 -198 -126 -198 -170 0 -32 6
-41 167 -237 73 -89 133 -167 133 -172 0 -14 -13 -14 -88 4 -154 37 -255 126
-392 346 l-60 96 0 113 c0 92 3 117 17 132 9 10 21 18 27 18 21 0 89 56 118
98 l30 44 72 -7 c95 -10 172 -31 224 -61 68 -40 171 -143 224 -223 54 -83 77
-149 81 -233 2 -62 10 -66 27 -12 15 43 7 124 -16 180 -35 85 -124 204 -265
357 l-44 47 -130 20 c-71 11 -133 20 -137 20 -5 0 -8 5 -8 10 0 14 29 13 135
-5z m-2786 -524 c11 -27 21 -68 21 -90 0 -50 -26 -118 -51 -131 -10 -6 -99
-10 -198 -10 l-179 0 -24 38 c-31 50 -31 139 0 200 l22 42 194 0 194 0 21 -49z
m1188 12 c27 -64 28 -141 1 -188 l-24 -40 -183 -3 c-203 -3 -202 -3 -232 63
-24 52 -24 82 2 150 l20 55 200 0 200 0 16 -37z m11 -323 c28 -56 28 -114 1
-160 -35 -59 -38 -60 -224 -60 -191 0 -201 3 -235 70 -24 47 -25 74 -5 130 26
74 16 71 239 68 l201 -3 23 -45z m-1190 -4 c30 -59 29 -118 -3 -173 -14 -23
-36 -45 -48 -48 -12 -3 -98 -4 -192 -3 l-170 3 -32 49 c-37 54 -42 96 -18 154
26 61 29 62 245 62 l196 0 22 -44z m-25 -266 c4 0 16 -15 27 -32 34 -57 22
-143 -28 -200 -13 -16 -37 -18 -203 -18 l-189 0 -26 40 c-38 56 -42 117 -14
169 13 22 30 41 38 43 12 2 356 1 395 -2z m1213 -17 c29 -45 30 -113 3 -168
-13 -27 -34 -51 -47 -56 -34 -13 -339 -11 -363 2 -24 12 -69 103 -69 137 0 28
27 94 43 104 7 4 103 8 213 8 l202 0 18 -27z m-50 -273 c16 0 28 -10 39 -30
27 -52 21 -60 -39 -60 -67 0 -234 -17 -332 -34 l-74 -12 0 33 c0 19 6 49 14
68 l15 34 133 4 c73 2 153 2 177 0 24 -2 54 -3 67 -3z m-1152 -27 c7 -16 17
-47 21 -70 8 -50 6 -51 -105 -32 -36 6 -130 16 -210 23 -160 13 -157 11 -131
79 l11 27 199 0 200 0 15 -27z m1493 -122 c208 -51 377 -159 475 -305 35 -51
78 -155 78 -188 0 -18 -861 -3 -995 17 -222 33 -334 93 -381 204 -17 41 -16
203 1 220 15 15 189 50 330 66 161 19 383 12 492 -14z m-1774 8 c146 -13 368
-54 378 -70 14 -23 19 -127 9 -177 -22 -98 -100 -172 -227 -212 -109 -34 -304
-49 -746 -56 l-418 -7 7 29 c43 180 168 317 376 413 79 37 212 76 288 84 75 8
217 7 333 -4z"/>
<path d="M5301 7499 c-36 -14 -78 -47 -101 -78 l-20 -29 50 19 c69 26 188 26
265 -1 32 -11 60 -18 62 -16 7 7 -90 88 -122 102 -39 16 -98 17 -134 3z"/>
<path d="M4560 6227 c-311 -5 -567 -10 -569 -13 -2 -2 -8 -113 -12 -246 -13
-393 -14 -470 -6 -451 4 10 34 148 67 307 32 159 63 292 67 296 7 6 340 39
886 88 104 10 185 21 181 25 -4 4 -17 6 -28 5 -12 -1 -275 -5 -586 -11z"/>
<path d="M5827 6126 c-144 -40 -257 -190 -257 -341 0 -269 281 -441 522 -319
69 35 111 75 146 142 126 236 -29 516 -292 529 -40 1 -92 -3 -119 -11z m214
-26 c113 -42 185 -123 215 -239 20 -81 13 -148 -25 -227 -36 -74 -89 -125
-166 -161 -50 -23 -74 -27 -142 -28 -53 0 -86 4 -94 13 -11 10 -8 12 10 12
125 0 229 132 201 255 -23 103 -80 160 -179 179 -114 21 -249 -80 -251 -189 0
-23 -3 -27 -10 -15 -17 27 -11 145 10 204 23 60 83 134 136 167 84 51 205 64
295 29z"/>
<path d="M4776 6104 c-99 -31 -178 -102 -223 -199 -23 -51 -28 -73 -28 -145 0
-77 3 -92 33 -152 148 -302 585 -255 668 72 54 214 -106 426 -331 437 -44 2
-88 -3 -119 -13z m245 -33 c74 -35 125 -85 161 -159 30 -60 33 -75 32 -152 0
-64 -6 -97 -22 -132 -64 -143 -237 -233 -382 -198 -64 15 -69 24 -15 27 114 5
199 98 199 218 1 75 -31 136 -91 179 -55 38 -141 47 -208 22 -74 -29 -133
-111 -136 -191 l0 -20 -9 20 c-14 34 -11 129 7 181 26 78 64 129 134 182 10 7
41 22 70 33 73 26 194 22 260 -10z"/>
<path d="M3833 4905 l2 -290 504 -3 c278 -1 503 0 500 2 -2 2 -204 23 -449 46
-245 23 -449 45 -453 49 -4 4 -28 111 -53 237 -24 126 -46 234 -48 239 -3 6
-4 -120 -3 -280z"/>
<path d="M4129 4345 c-142 -52 -241 -162 -256 -285 -6 -52 4 -160 15 -160 4 0
13 27 19 59 35 184 159 308 362 363 60 16 78 24 65 29 -31 12 -166 9 -205 -6z"/>
<path d="M6452 4352 c-10 -6 7 -14 55 -26 138 -35 248 -106 311 -202 17 -25
40 -83 53 -129 12 -47 26 -85 30 -85 13 0 22 87 16 143 -14 111 -100 222 -215
275 -45 21 -76 27 -147 29 -49 2 -96 0 -103 -5z"/>
<path d="M4425 4118 c-46 -25 -45 -10 -45 -635 l0 -594 25 -24 24 -25 989 0
989 0 24 26 24 26 3 579 c3 632 3 628 -54 649 -37 15 -1953 13 -1979 -2z
m1969 -54 c14 -14 16 -54 14 -332 l-3 -317 -167 -3 c-194 -3 -174 -15 -208
125 -21 88 -34 109 -58 95 -5 -4 -27 -75 -48 -157 -21 -83 -40 -153 -44 -157
-3 -4 -25 113 -49 260 -43 263 -57 310 -83 284 -6 -6 -34 -98 -63 -204 l-51
-193 -139 -10 -140 -10 -45 -132 c-25 -72 -48 -134 -51 -138 -4 -3 -44 94 -90
216 -46 123 -90 229 -98 236 -19 19 -30 7 -81 -86 -24 -44 -46 -78 -49 -76 -2
3 -25 109 -50 237 -63 314 -59 315 -171 -27 l-86 -260 -104 0 -105 0 0 323 c0
276 2 324 15 332 9 6 389 10 977 10 865 0 963 -2 977 -16z m-1529 -484 c23
-116 47 -216 53 -222 17 -17 28 -4 82 97 28 52 53 95 55 95 1 0 26 -64 55
-142 115 -312 131 -349 148 -346 12 2 35 55 77 173 l60 170 137 3 137 3 11 42
c48 185 70 260 75 255 2 -2 25 -125 50 -273 26 -152 51 -273 58 -277 21 -13
34 15 71 161 53 202 50 197 72 126 10 -33 22 -66 27 -72 7 -10 58 -13 193 -13
l184 0 0 -224 c0 -176 -3 -226 -14 -235 -10 -8 -276 -10 -987 -9 l-974 3 -3
233 -2 232 120 0 119 0 72 221 c39 121 73 218 76 215 3 -3 24 -100 48 -216z"/>
<path d="M4944 2766 c-50 -22 -61 -87 -21 -124 23 -22 24 -22 499 -22 l477 0
20 26 c38 48 24 104 -30 123 -50 17 -904 14 -945 -3z"/>
<path d="M4489 2722 c-58 -37 -83 -91 -77 -165 8 -94 77 -157 173 -157 98 0
166 63 173 160 11 150 -142 242 -269 162z m158 -58 c25 -14 43 -28 40 -30 -2
-3 -26 0 -52 6 -43 10 -87 7 -139 -7 -27 -7 -11 14 28 38 42 26 71 24 123 -7z"/>
<path d="M6210 2743 c-71 -27 -114 -100 -108 -183 7 -98 75 -160 175 -160 174
1 238 238 89 325 -42 24 -116 33 -156 18z m140 -83 c40 -28 33 -34 -21 -20
-39 11 -109 7 -147 -8 -25 -9 -4 17 32 39 38 25 92 20 136 -11z"/>
<path d="M4935 2515 c-39 -39 -27 -104 24 -125 18 -7 170 -10 490 -8 l463 3
19 24 c28 35 25 85 -7 110 -26 21 -36 21 -496 21 l-469 0 -24 -25z"/>
<path d="M3263 2911 c-49 -23 -100 -88 -108 -140 -4 -20 -8 -47 -11 -61 -4
-19 8 -10 54 41 61 66 137 115 217 139 69 20 72 23 40 30 -59 15 -149 10 -192
-9z"/>
<path d="M7330 2921 c-39 -7 -33 -15 20 -26 71 -14 175 -72 226 -127 28 -29
53 -60 56 -68 3 -8 8 -12 12 -8 13 11 -24 131 -51 166 -47 63 -140 85 -263 63z"/>
<path d="M6270 1101 l-55 -6 98 -13 c246 -33 487 -131 619 -250 21 -19 38 -30
38 -24 0 15 -68 102 -109 139 -51 46 -173 108 -261 133 -81 22 -239 32 -330
21z"/>
<path d="M4378 1090 c-127 -22 -268 -83 -340 -148 -47 -42 -118 -129 -118
-144 0 -5 28 12 63 40 73 58 180 120 257 150 74 29 235 68 345 84 l90 13 -70
6 c-95 9 -171 8 -227 -1z"/>
</g>
</svg>
